M48
; DRILL file KiCad 10.0.6 date 2026-09-02T15:44:07
; FORMAT={-:-/ absolute / metric / decimal}
; #@! TF.CreationDate,2026-09-02T15:44:07+07:00
; #@! TF.GenerationSoftware,Kicad,Pcbnew,10.0.6
; #@! TF.FileFunction,Plated,1,2,PTH
FMAT,2
METRIC
; #@! TA.AperFunction,Plated,PTH,ComponentDrill
T1C0.800
; #@! TA.AperFunction,Plated,PTH,ComponentDrill
T2C1.000
; #@! TA.AperFunction,Plated,PTH,ComponentDrill
T3C1.010
; #@! TA.AperFunction,Plated,PTH,ComponentDrill
T4C1.100
; #@! TA.AperFunction,Plated,PTH,ComponentDrill
T5C1.600
%
G90
G05
T1
X121.5Y-86.5
X131.66Y-86.5
X161.92Y-126.5
X161.92Y-131.5
X163.5Y-110.5
X163.5Y-120.66
X164.0Y-94.42
X164.0Y-104.58
X172.08Y-126.5
X172.08Y-131.5
T2
X94.2Y-96.5
X94.2Y-99.04
X94.2Y-101.58
X94.2Y-113.46
X94.2Y-116.0
X94.2Y-118.54
X127.25Y-95.84
X127.25Y-98.38
X127.25Y-100.92
X127.25Y-103.46
X127.25Y-106.0
X127.25Y-108.54
X127.25Y-111.08
X127.25Y-113.62
X127.25Y-116.16
X127.25Y-118.7
X127.25Y-121.24
X127.25Y-123.78
X127.25Y-126.32
X127.25Y-128.86
X127.25Y-131.4
X146.0Y-67.725
X146.0Y-70.265
X152.5Y-95.84
X152.5Y-98.38
X152.5Y-100.92
X152.5Y-103.46
X152.5Y-106.0
X152.5Y-108.54
X152.5Y-111.08
X152.5Y-113.62
X152.5Y-116.16
X152.5Y-118.7
X152.5Y-121.24
X152.5Y-123.78
X152.5Y-126.32
X152.5Y-128.86
X152.5Y-131.4
X182.0Y-95.96
X182.0Y-98.5
X182.0Y-101.04
X182.0Y-112.04
X182.0Y-114.58
X182.0Y-117.12
X182.5Y-124.92
X182.5Y-127.46
X182.5Y-130.0
X182.5Y-132.54
X208.0Y-67.725
X208.0Y-70.265
T3
X112.5Y-84.05
X113.7Y-78.95
T4
X117.5Y-76.0
X127.66Y-76.0
T5
X108.75Y-124.3
X108.75Y-130.3
X113.45Y-127.3
M30
