%TF.GenerationSoftware,KiCad,Pcbnew,10.0.6*%
%TF.CreationDate,2026-09-02T15:44:02+07:00*%
%TF.ProjectId,hidroponik,68696472-6f70-46f6-9e69-6b2e6b696361,rev?*%
%TF.SameCoordinates,Original*%
%TF.FileFunction,Copper,L1,Top*%
%TF.FilePolarity,Positive*%
%FSLAX46Y46*%
G04 Gerber Fmt 4.6, Leading zero omitted, Abs format (unit mm)*
G04 Created by KiCad (PCBNEW 10.0.6) date 2026-09-02 15:44:02*
%MOMM*%
%LPD*%
G01*
G04 APERTURE LIST*
G04 Aperture macros list*
%AMRoundRect*
0 Rectangle with rounded corners*
0 $1 Rounding radius*
0 $2 $3 $4 $5 $6 $7 $8 $9 X,Y pos of 4 corners*
0 Add a 4 corners polygon primitive as box body*
4,1,4,$2,$3,$4,$5,$6,$7,$8,$9,$2,$3,0*
0 Add four circle primitives for the rounded corners*
1,1,$1+$1,$2,$3*
1,1,$1+$1,$4,$5*
1,1,$1+$1,$6,$7*
1,1,$1+$1,$8,$9*
0 Add four rect primitives between the rounded corners*
20,1,$1+$1,$2,$3,$4,$5,0*
20,1,$1+$1,$4,$5,$6,$7,0*
20,1,$1+$1,$6,$7,$8,$9,0*
20,1,$1+$1,$8,$9,$2,$3,0*%
G04 Aperture macros list end*
%TA.AperFunction,ComponentPad*%
%ADD10R,1.700000X1.700000*%
%TD*%
%TA.AperFunction,ComponentPad*%
%ADD11C,1.700000*%
%TD*%
%TA.AperFunction,ComponentPad*%
%ADD12C,2.010000*%
%TD*%
%TA.AperFunction,ComponentPad*%
%ADD13C,1.600000*%
%TD*%
%TA.AperFunction,ComponentPad*%
%ADD14C,2.600000*%
%TD*%
%TA.AperFunction,ComponentPad*%
%ADD15R,2.600000X2.600000*%
%TD*%
%TA.AperFunction,ComponentPad*%
%ADD16RoundRect,0.249999X0.850001X0.850001X-0.850001X0.850001X-0.850001X-0.850001X0.850001X-0.850001X0*%
%TD*%
%TA.AperFunction,ComponentPad*%
%ADD17C,2.200000*%
%TD*%
%TA.AperFunction,Conductor*%
%ADD18C,0.200000*%
%TD*%
G04 APERTURE END LIST*
D10*
%TO.P,J8,1,Pin_1_1*%
%TO.N,/EN*%
X127250000Y-95840000D03*
D11*
%TO.P,J8,2,Pin_2_2*%
%TO.N,/PH_ANALOG*%
X127250000Y-98380000D03*
%TO.P,J8,3,Pin_3_3*%
%TO.N,/TDS_ANALOG*%
X127250000Y-100920000D03*
%TO.P,J8,4,Pin_4_4*%
%TO.N,unconnected-(J8-Pin_4-Pad4)*%
X127250000Y-103460000D03*
%TO.P,J8,5,Pin_5_5*%
%TO.N,unconnected-(J8-Pin_5-Pad5)*%
X127250000Y-106000000D03*
%TO.P,J8,6,Pin_6_6*%
%TO.N,unconnected-(J8-Pin_6-Pad6)*%
X127250000Y-108540000D03*
%TO.P,J8,7,Pin_7_7*%
%TO.N,unconnected-(J8-Pin_7-Pad7)*%
X127250000Y-111080000D03*
%TO.P,J8,8,Pin_8_8*%
%TO.N,unconnected-(J8-Pin_8-Pad8)*%
X127250000Y-113620000D03*
%TO.P,J8,9,Pin_9_9*%
%TO.N,unconnected-(J8-Pin_9-Pad9)*%
X127250000Y-116160000D03*
%TO.P,J8,10,Pin_10_10*%
%TO.N,unconnected-(J8-Pin_10-Pad10)*%
X127250000Y-118700000D03*
%TO.P,J8,11,Pin_11_11*%
%TO.N,/TRIG*%
X127250000Y-121240000D03*
%TO.P,J8,12,Pin_12_12*%
%TO.N,unconnected-(J8-Pin_12-Pad12)*%
X127250000Y-123780000D03*
%TO.P,J8,13,Pin_13_13*%
%TO.N,/ECHO_ESP32*%
X127250000Y-126320000D03*
%TO.P,J8,14,Pin_14_14*%
%TO.N,/GND*%
X127250000Y-128860000D03*
%TO.P,J8,15,Pin_15_15*%
%TO.N,/+5V*%
X127250000Y-131400000D03*
%TD*%
D12*
%TO.P,F2,1*%
%TO.N,/+12V_FUSED*%
X113700000Y-78950000D03*
%TO.P,F2,2*%
%TO.N,/+12V_IN*%
X112500000Y-84050000D03*
%TD*%
D13*
%TO.P,R5,2*%
%TO.N,/GND*%
X172080000Y-131500000D03*
%TO.P,R5,1*%
%TO.N,/ECHO_ESP32*%
X161920000Y-131500000D03*
%TD*%
D10*
%TO.P,J7,1,Pin_1_1*%
%TO.N,/+5V*%
X94200000Y-113460000D03*
D11*
%TO.P,J7,2,Pin_2_2*%
%TO.N,/GND*%
X94200000Y-116000000D03*
%TO.P,J7,3,Pin_3_3*%
%TO.N,/TDS_ANALOG*%
X94200000Y-118540000D03*
%TD*%
D10*
%TO.P,J6,1,Pin_1_1*%
%TO.N,/+5V*%
X94200000Y-96500000D03*
D11*
%TO.P,J6,2,Pin_2_2*%
%TO.N,/GND*%
X94200000Y-99040000D03*
%TO.P,J6,3,Pin_3_3*%
%TO.N,/PH_ANALOG*%
X94200000Y-101580000D03*
%TD*%
D13*
%TO.P,R1,1*%
%TO.N,/+3V3*%
X131660000Y-86500000D03*
%TO.P,R1,2*%
%TO.N,/EN*%
X121500000Y-86500000D03*
%TD*%
%TO.P,R4,1*%
%TO.N,/ECHO_ESP32*%
X161920000Y-126500000D03*
%TO.P,R4,2*%
%TO.N,/ECHO_RAW*%
X172080000Y-126500000D03*
%TD*%
D10*
%TO.P,J10,1,Pin_1_1*%
%TO.N,/+5V*%
X182500000Y-124920000D03*
D11*
%TO.P,J10,2,Pin_2_2*%
%TO.N,/TRIG*%
X182500000Y-127460000D03*
%TO.P,J10,3,Pin_3_3*%
%TO.N,/ECHO_RAW*%
X182500000Y-130000000D03*
%TO.P,J10,4,Pin_4_4*%
%TO.N,/GND*%
X182500000Y-132540000D03*
%TD*%
D14*
%TO.P,J1,3*%
%TO.N,N/C*%
X113450000Y-127300000D03*
%TO.P,J1,2*%
%TO.N,/GND*%
X108750000Y-130300000D03*
D15*
%TO.P,J1,1*%
%TO.N,/+12V_IN*%
X108750000Y-124300000D03*
%TD*%
D10*
%TO.P,J9,1,Pin_1_1*%
%TO.N,/+5V*%
X208000000Y-67725000D03*
D11*
%TO.P,J9,2,Pin_2_2*%
%TO.N,/GND*%
X208000000Y-70265000D03*
%TD*%
D13*
%TO.P,R2,1*%
%TO.N,/+3V3*%
X163500000Y-120660000D03*
%TO.P,R2,2*%
%TO.N,/DS18B20_DATA*%
X163500000Y-110500000D03*
%TD*%
D10*
%TO.P,J2,1,Pin_1_1*%
%TO.N,/+12V_PROTECTED*%
X146000000Y-67725000D03*
D11*
%TO.P,J2,2,Pin_2_2*%
%TO.N,/GND*%
X146000000Y-70265000D03*
%TD*%
D10*
%TO.P,J4,1,Pin_1_1*%
%TO.N,/+3V3*%
X182000000Y-117120000D03*
D11*
%TO.P,J4,2,Pin_2_2*%
%TO.N,/GND*%
X182000000Y-114580000D03*
%TO.P,J4,3,Pin_3_3*%
%TO.N,/DS18B20_DATA*%
X182000000Y-112040000D03*
%TD*%
D10*
%TO.P,J5,1,Pin_1_1*%
%TO.N,/+3V3*%
X182000000Y-95960000D03*
D11*
%TO.P,J5,2,Pin_2_2*%
%TO.N,/GND*%
X182000000Y-98500000D03*
%TO.P,J5,3,Pin_3_3*%
%TO.N,/DHT22_DATA*%
X182000000Y-101040000D03*
%TD*%
D10*
%TO.P,J3,1,Pin_1_1*%
%TO.N,unconnected-(J3-Pin_1-Pad1)*%
X152500000Y-95840000D03*
D11*
%TO.P,J3,2,Pin_2_2*%
%TO.N,unconnected-(J3-Pin_2-Pad2)*%
X152500000Y-98380000D03*
%TO.P,J3,3,Pin_3_3*%
%TO.N,unconnected-(J3-Pin_3-Pad3)*%
X152500000Y-100920000D03*
%TO.P,J3,4,Pin_4_4*%
%TO.N,unconnected-(J3-Pin_4-Pad4)*%
X152500000Y-103460000D03*
%TO.P,J3,5,Pin_5_5*%
%TO.N,unconnected-(J3-Pin_5-Pad5)*%
X152500000Y-106000000D03*
%TO.P,J3,6,Pin_6_6*%
%TO.N,unconnected-(J3-Pin_6-Pad6)*%
X152500000Y-108540000D03*
%TO.P,J3,7,Pin_7_7*%
%TO.N,unconnected-(J3-Pin_7-Pad7)*%
X152500000Y-111080000D03*
%TO.P,J3,8,Pin_8_8*%
%TO.N,/DHT22_DATA*%
X152500000Y-113620000D03*
%TO.P,J3,9,Pin_9_9*%
%TO.N,unconnected-(J3-Pin_9-Pad9)*%
X152500000Y-116160000D03*
%TO.P,J3,10,Pin_10_10*%
%TO.N,unconnected-(J3-Pin_10-Pad10)*%
X152500000Y-118700000D03*
%TO.P,J3,11,Pin_11_11*%
%TO.N,/DS18B20_DATA*%
X152500000Y-121240000D03*
%TO.P,J3,12,Pin_12_12*%
%TO.N,unconnected-(J3-Pin_12-Pad12)*%
X152500000Y-123780000D03*
%TO.P,J3,13,Pin_13_13*%
%TO.N,unconnected-(J3-Pin_13-Pad13)*%
X152500000Y-126320000D03*
%TO.P,J3,14,Pin_14_14*%
%TO.N,unconnected-(J3-Pin_14-Pad14)*%
X152500000Y-128860000D03*
%TO.P,J3,15,Pin_15_15*%
%TO.N,/+3V3*%
X152500000Y-131400000D03*
%TD*%
D16*
%TO.P,D1,1,K_1*%
%TO.N,/+12V_PROTECTED*%
X127660000Y-76000000D03*
D17*
%TO.P,D1,2,A_2*%
%TO.N,/+12V_FUSED*%
X117500000Y-76000000D03*
%TD*%
D13*
%TO.P,R3,1*%
%TO.N,/+3V3*%
X164000000Y-94420000D03*
%TO.P,R3,2*%
%TO.N,/DHT22_DATA*%
X164000000Y-104580000D03*
%TD*%
%TO.N,/GND*%
D18*
X146000000Y-70265000D02*
X208000000Y-70265000D01*
%TO.N,/+5V*%
X208000000Y-67725000D02*
X210725000Y-67725000D01*
X210725000Y-67725000D02*
X212500000Y-69500000D01*
X187000000Y-119000000D02*
X182500000Y-123500000D01*
X212500000Y-69500000D02*
X212500000Y-76000000D01*
X212500000Y-76000000D02*
X196500000Y-92000000D01*
X196500000Y-92000000D02*
X194000000Y-92000000D01*
X194000000Y-92000000D02*
X187000000Y-99000000D01*
X187000000Y-99000000D02*
X187000000Y-119000000D01*
X182500000Y-123500000D02*
X182500000Y-124920000D01*
%TO.N,/GND*%
X184500000Y-87500000D02*
X198000000Y-74000000D01*
X184500000Y-96000000D02*
X184500000Y-87500000D01*
X182000000Y-98500000D02*
X184500000Y-96000000D01*
X198000000Y-74000000D02*
X204265000Y-74000000D01*
X204265000Y-74000000D02*
X208000000Y-70265000D01*
X94200000Y-99040000D02*
X106240000Y-87000000D01*
X106240000Y-87000000D02*
X116500000Y-87000000D01*
X116500000Y-87000000D02*
X123500000Y-80000000D01*
X123500000Y-80000000D02*
X138500000Y-80000000D01*
X138500000Y-80000000D02*
X140500000Y-78000000D01*
X140500000Y-78000000D02*
X140500000Y-75765000D01*
X140500000Y-75765000D02*
X146000000Y-70265000D01*
%TO.N,/+12V_PROTECTED*%
X127660000Y-76000000D02*
X129160000Y-74500000D01*
X129160000Y-74500000D02*
X134500000Y-74500000D01*
X134500000Y-74500000D02*
X141275000Y-67725000D01*
X141275000Y-67725000D02*
X146000000Y-67725000D01*
%TO.N,/GND*%
X94200000Y-116000000D02*
X91000000Y-116000000D01*
X91000000Y-121000000D02*
X119390000Y-121000000D01*
X91000000Y-116000000D02*
X90000000Y-117000000D01*
X90000000Y-117000000D02*
X90000000Y-120000000D01*
X90000000Y-120000000D02*
X91000000Y-121000000D01*
X119390000Y-121000000D02*
X127250000Y-128860000D01*
%TO.N,/TRIG*%
X182500000Y-127460000D02*
X180430000Y-127460000D01*
X180430000Y-127460000D02*
X176970000Y-124000000D01*
X176970000Y-124000000D02*
X159500000Y-124000000D01*
X159500000Y-124000000D02*
X156000000Y-127500000D01*
X156000000Y-127500000D02*
X156000000Y-132500000D01*
X156000000Y-132500000D02*
X154500000Y-134000000D01*
X137065686Y-122500000D02*
X128510000Y-122500000D01*
X154500000Y-134000000D02*
X148565686Y-134000000D01*
X148565686Y-134000000D02*
X137065686Y-122500000D01*
X128510000Y-122500000D02*
X127250000Y-121240000D01*
%TO.N,/EN*%
X127250000Y-95840000D02*
X127250000Y-94750000D01*
X127250000Y-94750000D02*
X121500000Y-89000000D01*
%TO.N,/PH_ANALOG*%
X94200000Y-101580000D02*
X97400000Y-98380000D01*
X97400000Y-98380000D02*
X127250000Y-98380000D01*
%TO.N,/ECHO_ESP32*%
X127250000Y-126320000D02*
X134200000Y-126320000D01*
X134200000Y-126320000D02*
X140380000Y-132500000D01*
X140380000Y-132500000D02*
X145500000Y-132500000D01*
X145500000Y-132500000D02*
X148000000Y-135000000D01*
X148000000Y-135000000D02*
X155000000Y-135000000D01*
X155000000Y-135000000D02*
X157000000Y-133000000D01*
X157000000Y-133000000D02*
X157000000Y-130250000D01*
X157000000Y-130250000D02*
X158250000Y-129000000D01*
X158250000Y-129000000D02*
X161920000Y-129000000D01*
%TO.N,/GND*%
X94200000Y-116000000D02*
X96500000Y-116000000D01*
X96500000Y-116000000D02*
X97000000Y-115500000D01*
X97000000Y-115500000D02*
X97000000Y-110500000D01*
X97000000Y-110500000D02*
X92000000Y-105500000D01*
X92000000Y-105500000D02*
X92000000Y-100500000D01*
X92000000Y-100500000D02*
X93460000Y-99040000D01*
X93460000Y-99040000D02*
X94200000Y-99040000D01*
%TO.N,/+5V*%
X94200000Y-111700000D02*
X91000000Y-108500000D01*
X91000000Y-108500000D02*
X91000000Y-99000000D01*
X94200000Y-113460000D02*
X94200000Y-111700000D01*
X91000000Y-99000000D02*
X93500000Y-96500000D01*
X93500000Y-96500000D02*
X94200000Y-96500000D01*
%TO.N,/+12V_IN*%
X108750000Y-124300000D02*
X90300000Y-124300000D01*
X90300000Y-124300000D02*
X86000000Y-120000000D01*
X98950000Y-84050000D02*
X112500000Y-84050000D01*
X86000000Y-120000000D02*
X86000000Y-97000000D01*
X86000000Y-97000000D02*
X98950000Y-84050000D01*
%TO.N,/TDS_ANALOG*%
X94200000Y-118540000D02*
X115460000Y-118540000D01*
X115460000Y-118540000D02*
X121500000Y-112500000D01*
X121500000Y-112500000D02*
X121500000Y-103500000D01*
X124000000Y-101000000D02*
X127170000Y-101000000D01*
X121500000Y-103500000D02*
X124000000Y-101000000D01*
X127170000Y-101000000D02*
X127250000Y-100920000D01*
%TO.N,/GND*%
X108750000Y-130300000D02*
X125810000Y-130300000D01*
X125810000Y-130300000D02*
X127250000Y-128860000D01*
%TO.N,/+5V*%
X182500000Y-124920000D02*
X183920000Y-124920000D01*
X183920000Y-124920000D02*
X186000000Y-127000000D01*
X186000000Y-135000000D02*
X184000000Y-137000000D01*
X186000000Y-127000000D02*
X186000000Y-135000000D01*
X184000000Y-137000000D02*
X139800000Y-137000000D01*
X139800000Y-137000000D02*
X134200000Y-131400000D01*
X134200000Y-131400000D02*
X127250000Y-131400000D01*
%TO.N,/GND*%
X182500000Y-132540000D02*
X179040000Y-136000000D01*
X179040000Y-136000000D02*
X141340000Y-136000000D01*
X141340000Y-136000000D02*
X134200000Y-128860000D01*
X134200000Y-128860000D02*
X127250000Y-128860000D01*
%TO.N,/+12V_FUSED*%
X113700000Y-78950000D02*
X113700000Y-77800000D01*
X113700000Y-77800000D02*
X115500000Y-76000000D01*
X115500000Y-76000000D02*
X117500000Y-76000000D01*
%TO.N,/GND*%
X172080000Y-131500000D02*
X181460000Y-131500000D01*
X181460000Y-131500000D02*
X182500000Y-132540000D01*
%TO.N,/ECHO_RAW*%
X172080000Y-126500000D02*
X173500000Y-126500000D01*
X173500000Y-126500000D02*
X177000000Y-130000000D01*
X177000000Y-130000000D02*
X182500000Y-130000000D01*
%TO.N,/+12V_IN*%
X112500000Y-84050000D02*
X112500000Y-84000000D01*
%TO.N,/ECHO_ESP32*%
X161920000Y-126500000D02*
X161920000Y-129000000D01*
X161920000Y-129000000D02*
X161920000Y-131500000D01*
%TO.N,/+3V3*%
X163500000Y-120660000D02*
X159840000Y-120660000D01*
X159840000Y-120660000D02*
X155000000Y-125500000D01*
X155000000Y-125500000D02*
X155000000Y-129000000D01*
X155000000Y-129000000D02*
X152600000Y-131400000D01*
X152600000Y-131400000D02*
X152500000Y-131400000D01*
%TO.N,/DS18B20_DATA*%
X163500000Y-110500000D02*
X152760000Y-121240000D01*
X152760000Y-121240000D02*
X152500000Y-121240000D01*
X163500000Y-110500000D02*
X180460000Y-110500000D01*
X180460000Y-110500000D02*
X182000000Y-112040000D01*
%TO.N,/GND*%
X182000000Y-98500000D02*
X184500000Y-101000000D01*
X184500000Y-101000000D02*
X184500000Y-112080000D01*
X184500000Y-112080000D02*
X182000000Y-114580000D01*
%TO.N,/+3V3*%
X182000000Y-117120000D02*
X167040000Y-117120000D01*
X167040000Y-117120000D02*
X163500000Y-120660000D01*
%TO.N,/DHT22_DATA*%
X164000000Y-104580000D02*
X161540000Y-104580000D01*
X161540000Y-104580000D02*
X152500000Y-113620000D01*
X164000000Y-104580000D02*
X178460000Y-104580000D01*
X178460000Y-104580000D02*
X182000000Y-101040000D01*
%TO.N,/+3V3*%
X164000000Y-94420000D02*
X180460000Y-94420000D01*
X180460000Y-94420000D02*
X182000000Y-95960000D01*
X131660000Y-86500000D02*
X148500000Y-86500000D01*
X148500000Y-86500000D02*
X156420000Y-94420000D01*
X156420000Y-94420000D02*
X164000000Y-94420000D01*
X147500000Y-104500000D02*
X147500000Y-126400000D01*
X147500000Y-126400000D02*
X152500000Y-131400000D01*
X131660000Y-86500000D02*
X131660000Y-88660000D01*
X131660000Y-88660000D02*
X147500000Y-104500000D01*
%TO.N,/EN*%
X121500000Y-86500000D02*
X121500000Y-89000000D01*
%TO.N,/+5V*%
X127250000Y-131400000D02*
X126150000Y-132500000D01*
X105000000Y-131500000D02*
X105000000Y-127500000D01*
X88500000Y-115500000D02*
X90540000Y-113460000D01*
X126150000Y-132500000D02*
X106000000Y-132500000D01*
X110500000Y-127500000D02*
X111500000Y-126500000D01*
X90000000Y-121500000D02*
X88500000Y-120000000D01*
X90540000Y-113460000D02*
X94200000Y-113460000D01*
X106000000Y-132500000D02*
X105000000Y-131500000D01*
X105000000Y-127500000D02*
X110500000Y-127500000D01*
X111500000Y-126500000D02*
X111500000Y-122500000D01*
X111500000Y-122500000D02*
X110500000Y-121500000D01*
X110500000Y-121500000D02*
X90000000Y-121500000D01*
X88500000Y-120000000D02*
X88500000Y-115500000D01*
%TD*%
M02*
