%TF.GenerationSoftware,KiCad,Pcbnew,10.0.6*%
%TF.CreationDate,2026-09-02T15:44:03+07:00*%
%TF.ProjectId,hidroponik,68696472-6f70-46f6-9e69-6b2e6b696361,rev?*%
%TF.SameCoordinates,Original*%
%TF.FileFunction,Soldermask,Top*%
%TF.FilePolarity,Negative*%
%FSLAX46Y46*%
G04 Gerber Fmt 4.6, Leading zero omitted, Abs format (unit mm)*
G04 Created by KiCad (PCBNEW 10.0.6) date 2026-09-02 15:44:03*
%MOMM*%
%LPD*%
G01*
G04 APERTURE LIST*
G04 Aperture macros list*
%AMRoundRect*
0 Rectangle with rounded corners*
0 $1 Rounding radius*
0 $2 $3 $4 $5 $6 $7 $8 $9 X,Y pos of 4 corners*
0 Add a 4 corners polygon primitive as box body*
4,1,4,$2,$3,$4,$5,$6,$7,$8,$9,$2,$3,0*
0 Add four circle primitives for the rounded corners*
1,1,$1+$1,$2,$3*
1,1,$1+$1,$4,$5*
1,1,$1+$1,$6,$7*
1,1,$1+$1,$8,$9*
0 Add four rect primitives between the rounded corners*
20,1,$1+$1,$2,$3,$4,$5,0*
20,1,$1+$1,$4,$5,$6,$7,0*
20,1,$1+$1,$6,$7,$8,$9,0*
20,1,$1+$1,$8,$9,$2,$3,0*%
G04 Aperture macros list end*
%ADD10R,1.700000X1.700000*%
%ADD11C,1.700000*%
%ADD12C,3.200000*%
%ADD13C,2.010000*%
%ADD14C,1.600000*%
%ADD15C,2.600000*%
%ADD16R,2.600000X2.600000*%
%ADD17RoundRect,0.249999X0.850001X0.850001X-0.850001X0.850001X-0.850001X-0.850001X0.850001X-0.850001X0*%
%ADD18C,2.200000*%
G04 APERTURE END LIST*
D10*
%TO.C,J8*%
X127250000Y-95840000D03*
D11*
X127250000Y-98380000D03*
X127250000Y-100920000D03*
X127250000Y-103460000D03*
X127250000Y-106000000D03*
X127250000Y-108540000D03*
X127250000Y-111080000D03*
X127250000Y-113620000D03*
X127250000Y-116160000D03*
X127250000Y-118700000D03*
X127250000Y-121240000D03*
X127250000Y-123780000D03*
X127250000Y-126320000D03*
X127250000Y-128860000D03*
X127250000Y-131400000D03*
%TD*%
D12*
%TO.C,REF\u002A\u002A*%
X215500000Y-134500000D03*
%TD*%
D13*
%TO.C,F2*%
X113700000Y-78950000D03*
X112500000Y-84050000D03*
%TD*%
D14*
%TO.C,R5*%
X172080000Y-131500000D03*
X161920000Y-131500000D03*
%TD*%
D10*
%TO.C,J7*%
X94200000Y-113460000D03*
D11*
X94200000Y-116000000D03*
X94200000Y-118540000D03*
%TD*%
D10*
%TO.C,J6*%
X94200000Y-96500000D03*
D11*
X94200000Y-99040000D03*
X94200000Y-101580000D03*
%TD*%
D14*
%TO.C,R1*%
X131660000Y-86500000D03*
X121500000Y-86500000D03*
%TD*%
%TO.C,R4*%
X161920000Y-126500000D03*
X172080000Y-126500000D03*
%TD*%
D10*
%TO.C,J10*%
X182500000Y-124920000D03*
D11*
X182500000Y-127460000D03*
X182500000Y-130000000D03*
X182500000Y-132540000D03*
%TD*%
D15*
%TO.C,J1*%
X113450000Y-127300000D03*
X108750000Y-130300000D03*
D16*
X108750000Y-124300000D03*
%TD*%
D10*
%TO.C,J9*%
X208000000Y-67725000D03*
D11*
X208000000Y-70265000D03*
%TD*%
D14*
%TO.C,R2*%
X163500000Y-120660000D03*
X163500000Y-110500000D03*
%TD*%
D10*
%TO.C,J2*%
X146000000Y-67725000D03*
D11*
X146000000Y-70265000D03*
%TD*%
D10*
%TO.C,J4*%
X182000000Y-117120000D03*
D11*
X182000000Y-114580000D03*
X182000000Y-112040000D03*
%TD*%
D10*
%TO.C,J5*%
X182000000Y-95960000D03*
D11*
X182000000Y-98500000D03*
X182000000Y-101040000D03*
%TD*%
D10*
%TO.C,J3*%
X152500000Y-95840000D03*
D11*
X152500000Y-98380000D03*
X152500000Y-100920000D03*
X152500000Y-103460000D03*
X152500000Y-106000000D03*
X152500000Y-108540000D03*
X152500000Y-111080000D03*
X152500000Y-113620000D03*
X152500000Y-116160000D03*
X152500000Y-118700000D03*
X152500000Y-121240000D03*
X152500000Y-123780000D03*
X152500000Y-126320000D03*
X152500000Y-128860000D03*
X152500000Y-131400000D03*
%TD*%
D17*
%TO.C,D1*%
X127660000Y-76000000D03*
D18*
X117500000Y-76000000D03*
%TD*%
D14*
%TO.C,R3*%
X164000000Y-94420000D03*
X164000000Y-104580000D03*
%TD*%
D12*
%TO.C,REF\u002A\u002A*%
X215500000Y-54000000D03*
%TD*%
%TO.C,REF\u002A\u002A*%
X71500000Y-54000000D03*
%TD*%
%TO.C,REF\u002A\u002A*%
X71500000Y-134000000D03*
%TD*%
M02*
