%TF.GenerationSoftware,KiCad,Pcbnew,10.0.6*%
%TF.CreationDate,2026-09-02T15:44:03+07:00*%
%TF.ProjectId,hidroponik,68696472-6f70-46f6-9e69-6b2e6b696361,rev?*%
%TF.SameCoordinates,Original*%
%TF.FileFunction,Legend,Top*%
%TF.FilePolarity,Positive*%
%FSLAX46Y46*%
G04 Gerber Fmt 4.6, Leading zero omitted, Abs format (unit mm)*
G04 Created by KiCad (PCBNEW 10.0.6) date 2026-09-02 15:44:03*
%MOMM*%
%LPD*%
G01*
G04 APERTURE LIST*
%ADD10C,0.100000*%
%ADD11C,0.150000*%
%ADD12C,0.120000*%
G04 APERTURE END LIST*
D10*
X78303884Y-55872419D02*
X78303884Y-54872419D01*
X78732455Y-55872419D02*
X78732455Y-55348609D01*
X78732455Y-55348609D02*
X78684836Y-55253371D01*
X78684836Y-55253371D02*
X78589598Y-55205752D01*
X78589598Y-55205752D02*
X78446741Y-55205752D01*
X78446741Y-55205752D02*
X78351503Y-55253371D01*
X78351503Y-55253371D02*
X78303884Y-55300990D01*
X79065789Y-55205752D02*
X79446741Y-55205752D01*
X79208646Y-54872419D02*
X79208646Y-55729561D01*
X79208646Y-55729561D02*
X79256265Y-55824800D01*
X79256265Y-55824800D02*
X79351503Y-55872419D01*
X79351503Y-55872419D02*
X79446741Y-55872419D01*
X79637218Y-55205752D02*
X80018170Y-55205752D01*
X79780075Y-54872419D02*
X79780075Y-55729561D01*
X79780075Y-55729561D02*
X79827694Y-55824800D01*
X79827694Y-55824800D02*
X79922932Y-55872419D01*
X79922932Y-55872419D02*
X80018170Y-55872419D01*
X80351504Y-55205752D02*
X80351504Y-56205752D01*
X80351504Y-55253371D02*
X80446742Y-55205752D01*
X80446742Y-55205752D02*
X80637218Y-55205752D01*
X80637218Y-55205752D02*
X80732456Y-55253371D01*
X80732456Y-55253371D02*
X80780075Y-55300990D01*
X80780075Y-55300990D02*
X80827694Y-55396228D01*
X80827694Y-55396228D02*
X80827694Y-55681942D01*
X80827694Y-55681942D02*
X80780075Y-55777180D01*
X80780075Y-55777180D02*
X80732456Y-55824800D01*
X80732456Y-55824800D02*
X80637218Y-55872419D01*
X80637218Y-55872419D02*
X80446742Y-55872419D01*
X80446742Y-55872419D02*
X80351504Y-55824800D01*
X81208647Y-55824800D02*
X81303885Y-55872419D01*
X81303885Y-55872419D02*
X81494361Y-55872419D01*
X81494361Y-55872419D02*
X81589599Y-55824800D01*
X81589599Y-55824800D02*
X81637218Y-55729561D01*
X81637218Y-55729561D02*
X81637218Y-55681942D01*
X81637218Y-55681942D02*
X81589599Y-55586704D01*
X81589599Y-55586704D02*
X81494361Y-55539085D01*
X81494361Y-55539085D02*
X81351504Y-55539085D01*
X81351504Y-55539085D02*
X81256266Y-55491466D01*
X81256266Y-55491466D02*
X81208647Y-55396228D01*
X81208647Y-55396228D02*
X81208647Y-55348609D01*
X81208647Y-55348609D02*
X81256266Y-55253371D01*
X81256266Y-55253371D02*
X81351504Y-55205752D01*
X81351504Y-55205752D02*
X81494361Y-55205752D01*
X81494361Y-55205752D02*
X81589599Y-55253371D01*
X82065790Y-55777180D02*
X82113409Y-55824800D01*
X82113409Y-55824800D02*
X82065790Y-55872419D01*
X82065790Y-55872419D02*
X82018171Y-55824800D01*
X82018171Y-55824800D02*
X82065790Y-55777180D01*
X82065790Y-55777180D02*
X82065790Y-55872419D01*
X82065790Y-55253371D02*
X82113409Y-55300990D01*
X82113409Y-55300990D02*
X82065790Y-55348609D01*
X82065790Y-55348609D02*
X82018171Y-55300990D01*
X82018171Y-55300990D02*
X82065790Y-55253371D01*
X82065790Y-55253371D02*
X82065790Y-55348609D01*
X83256265Y-54824800D02*
X82399123Y-56110514D01*
X84303884Y-54824800D02*
X83446742Y-56110514D01*
X85065789Y-55205752D02*
X85065789Y-56015276D01*
X85065789Y-56015276D02*
X85018170Y-56110514D01*
X85018170Y-56110514D02*
X84970551Y-56158133D01*
X84970551Y-56158133D02*
X84875313Y-56205752D01*
X84875313Y-56205752D02*
X84732456Y-56205752D01*
X84732456Y-56205752D02*
X84637218Y-56158133D01*
X85065789Y-55824800D02*
X84970551Y-55872419D01*
X84970551Y-55872419D02*
X84780075Y-55872419D01*
X84780075Y-55872419D02*
X84684837Y-55824800D01*
X84684837Y-55824800D02*
X84637218Y-55777180D01*
X84637218Y-55777180D02*
X84589599Y-55681942D01*
X84589599Y-55681942D02*
X84589599Y-55396228D01*
X84589599Y-55396228D02*
X84637218Y-55300990D01*
X84637218Y-55300990D02*
X84684837Y-55253371D01*
X84684837Y-55253371D02*
X84780075Y-55205752D01*
X84780075Y-55205752D02*
X84970551Y-55205752D01*
X84970551Y-55205752D02*
X85065789Y-55253371D01*
X85541980Y-55872419D02*
X85541980Y-55205752D01*
X85541980Y-54872419D02*
X85494361Y-54920038D01*
X85494361Y-54920038D02*
X85541980Y-54967657D01*
X85541980Y-54967657D02*
X85589599Y-54920038D01*
X85589599Y-54920038D02*
X85541980Y-54872419D01*
X85541980Y-54872419D02*
X85541980Y-54967657D01*
X85875313Y-55205752D02*
X86256265Y-55205752D01*
X86018170Y-54872419D02*
X86018170Y-55729561D01*
X86018170Y-55729561D02*
X86065789Y-55824800D01*
X86065789Y-55824800D02*
X86161027Y-55872419D01*
X86161027Y-55872419D02*
X86256265Y-55872419D01*
X86589599Y-55872419D02*
X86589599Y-54872419D01*
X87018170Y-55872419D02*
X87018170Y-55348609D01*
X87018170Y-55348609D02*
X86970551Y-55253371D01*
X86970551Y-55253371D02*
X86875313Y-55205752D01*
X86875313Y-55205752D02*
X86732456Y-55205752D01*
X86732456Y-55205752D02*
X86637218Y-55253371D01*
X86637218Y-55253371D02*
X86589599Y-55300990D01*
X87922932Y-55205752D02*
X87922932Y-55872419D01*
X87494361Y-55205752D02*
X87494361Y-55729561D01*
X87494361Y-55729561D02*
X87541980Y-55824800D01*
X87541980Y-55824800D02*
X87637218Y-55872419D01*
X87637218Y-55872419D02*
X87780075Y-55872419D01*
X87780075Y-55872419D02*
X87875313Y-55824800D01*
X87875313Y-55824800D02*
X87922932Y-55777180D01*
X88399123Y-55872419D02*
X88399123Y-54872419D01*
X88399123Y-55253371D02*
X88494361Y-55205752D01*
X88494361Y-55205752D02*
X88684837Y-55205752D01*
X88684837Y-55205752D02*
X88780075Y-55253371D01*
X88780075Y-55253371D02*
X88827694Y-55300990D01*
X88827694Y-55300990D02*
X88875313Y-55396228D01*
X88875313Y-55396228D02*
X88875313Y-55681942D01*
X88875313Y-55681942D02*
X88827694Y-55777180D01*
X88827694Y-55777180D02*
X88780075Y-55824800D01*
X88780075Y-55824800D02*
X88684837Y-55872419D01*
X88684837Y-55872419D02*
X88494361Y-55872419D01*
X88494361Y-55872419D02*
X88399123Y-55824800D01*
X89303885Y-55777180D02*
X89351504Y-55824800D01*
X89351504Y-55824800D02*
X89303885Y-55872419D01*
X89303885Y-55872419D02*
X89256266Y-55824800D01*
X89256266Y-55824800D02*
X89303885Y-55777180D01*
X89303885Y-55777180D02*
X89303885Y-55872419D01*
X90208646Y-55824800D02*
X90113408Y-55872419D01*
X90113408Y-55872419D02*
X89922932Y-55872419D01*
X89922932Y-55872419D02*
X89827694Y-55824800D01*
X89827694Y-55824800D02*
X89780075Y-55777180D01*
X89780075Y-55777180D02*
X89732456Y-55681942D01*
X89732456Y-55681942D02*
X89732456Y-55396228D01*
X89732456Y-55396228D02*
X89780075Y-55300990D01*
X89780075Y-55300990D02*
X89827694Y-55253371D01*
X89827694Y-55253371D02*
X89922932Y-55205752D01*
X89922932Y-55205752D02*
X90113408Y-55205752D01*
X90113408Y-55205752D02*
X90208646Y-55253371D01*
X90780075Y-55872419D02*
X90684837Y-55824800D01*
X90684837Y-55824800D02*
X90637218Y-55777180D01*
X90637218Y-55777180D02*
X90589599Y-55681942D01*
X90589599Y-55681942D02*
X90589599Y-55396228D01*
X90589599Y-55396228D02*
X90637218Y-55300990D01*
X90637218Y-55300990D02*
X90684837Y-55253371D01*
X90684837Y-55253371D02*
X90780075Y-55205752D01*
X90780075Y-55205752D02*
X90922932Y-55205752D01*
X90922932Y-55205752D02*
X91018170Y-55253371D01*
X91018170Y-55253371D02*
X91065789Y-55300990D01*
X91065789Y-55300990D02*
X91113408Y-55396228D01*
X91113408Y-55396228D02*
X91113408Y-55681942D01*
X91113408Y-55681942D02*
X91065789Y-55777180D01*
X91065789Y-55777180D02*
X91018170Y-55824800D01*
X91018170Y-55824800D02*
X90922932Y-55872419D01*
X90922932Y-55872419D02*
X90780075Y-55872419D01*
X91541980Y-55872419D02*
X91541980Y-55205752D01*
X91541980Y-55300990D02*
X91589599Y-55253371D01*
X91589599Y-55253371D02*
X91684837Y-55205752D01*
X91684837Y-55205752D02*
X91827694Y-55205752D01*
X91827694Y-55205752D02*
X91922932Y-55253371D01*
X91922932Y-55253371D02*
X91970551Y-55348609D01*
X91970551Y-55348609D02*
X91970551Y-55872419D01*
X91970551Y-55348609D02*
X92018170Y-55253371D01*
X92018170Y-55253371D02*
X92113408Y-55205752D01*
X92113408Y-55205752D02*
X92256265Y-55205752D01*
X92256265Y-55205752D02*
X92351504Y-55253371D01*
X92351504Y-55253371D02*
X92399123Y-55348609D01*
X92399123Y-55348609D02*
X92399123Y-55872419D01*
X93589598Y-54824800D02*
X92732456Y-56110514D01*
X93875313Y-55586704D02*
X94351503Y-55586704D01*
X93780075Y-55872419D02*
X94113408Y-54872419D01*
X94113408Y-54872419D02*
X94446741Y-55872419D01*
X95256265Y-55872419D02*
X94780075Y-55872419D01*
X94780075Y-55872419D02*
X94780075Y-54872419D01*
X95494361Y-54872419D02*
X96161027Y-54872419D01*
X96161027Y-54872419D02*
X95494361Y-55872419D01*
X95494361Y-55872419D02*
X96161027Y-55872419D01*
X96541980Y-55348609D02*
X96875313Y-55348609D01*
X97018170Y-55872419D02*
X96541980Y-55872419D01*
X96541980Y-55872419D02*
X96541980Y-54872419D01*
X96541980Y-54872419D02*
X97018170Y-54872419D01*
X97446742Y-55348609D02*
X97780075Y-55348609D01*
X97922932Y-55872419D02*
X97446742Y-55872419D01*
X97446742Y-55872419D02*
X97446742Y-54872419D01*
X97446742Y-54872419D02*
X97922932Y-54872419D01*
X98303885Y-54967657D02*
X98351504Y-54920038D01*
X98351504Y-54920038D02*
X98446742Y-54872419D01*
X98446742Y-54872419D02*
X98684837Y-54872419D01*
X98684837Y-54872419D02*
X98780075Y-54920038D01*
X98780075Y-54920038D02*
X98827694Y-54967657D01*
X98827694Y-54967657D02*
X98875313Y-55062895D01*
X98875313Y-55062895D02*
X98875313Y-55158133D01*
X98875313Y-55158133D02*
X98827694Y-55300990D01*
X98827694Y-55300990D02*
X98256266Y-55872419D01*
X98256266Y-55872419D02*
X98875313Y-55872419D01*
X99208647Y-54872419D02*
X99827694Y-54872419D01*
X99827694Y-54872419D02*
X99494361Y-55253371D01*
X99494361Y-55253371D02*
X99637218Y-55253371D01*
X99637218Y-55253371D02*
X99732456Y-55300990D01*
X99732456Y-55300990D02*
X99780075Y-55348609D01*
X99780075Y-55348609D02*
X99827694Y-55443847D01*
X99827694Y-55443847D02*
X99827694Y-55681942D01*
X99827694Y-55681942D02*
X99780075Y-55777180D01*
X99780075Y-55777180D02*
X99732456Y-55824800D01*
X99732456Y-55824800D02*
X99637218Y-55872419D01*
X99637218Y-55872419D02*
X99351504Y-55872419D01*
X99351504Y-55872419D02*
X99256266Y-55824800D01*
X99256266Y-55824800D02*
X99208647Y-55777180D01*
X85303884Y-53872419D02*
X85303884Y-52872419D01*
X85303884Y-52872419D02*
X85875312Y-53872419D01*
X85875312Y-53872419D02*
X85875312Y-52872419D01*
X86256265Y-52872419D02*
X86922931Y-52872419D01*
X86922931Y-52872419D02*
X86256265Y-53872419D01*
X86256265Y-53872419D02*
X86922931Y-53872419D01*
X87303884Y-53872419D02*
X87303884Y-52872419D01*
X87303884Y-52872419D02*
X87684836Y-52872419D01*
X87684836Y-52872419D02*
X87780074Y-52920038D01*
X87780074Y-52920038D02*
X87827693Y-52967657D01*
X87827693Y-52967657D02*
X87875312Y-53062895D01*
X87875312Y-53062895D02*
X87875312Y-53205752D01*
X87875312Y-53205752D02*
X87827693Y-53300990D01*
X87827693Y-53300990D02*
X87780074Y-53348609D01*
X87780074Y-53348609D02*
X87684836Y-53396228D01*
X87684836Y-53396228D02*
X87303884Y-53396228D01*
X88256265Y-53824800D02*
X88399122Y-53872419D01*
X88399122Y-53872419D02*
X88637217Y-53872419D01*
X88637217Y-53872419D02*
X88732455Y-53824800D01*
X88732455Y-53824800D02*
X88780074Y-53777180D01*
X88780074Y-53777180D02*
X88827693Y-53681942D01*
X88827693Y-53681942D02*
X88827693Y-53586704D01*
X88827693Y-53586704D02*
X88780074Y-53491466D01*
X88780074Y-53491466D02*
X88732455Y-53443847D01*
X88732455Y-53443847D02*
X88637217Y-53396228D01*
X88637217Y-53396228D02*
X88446741Y-53348609D01*
X88446741Y-53348609D02*
X88351503Y-53300990D01*
X88351503Y-53300990D02*
X88303884Y-53253371D01*
X88303884Y-53253371D02*
X88256265Y-53158133D01*
X88256265Y-53158133D02*
X88256265Y-53062895D01*
X88256265Y-53062895D02*
X88303884Y-52967657D01*
X88303884Y-52967657D02*
X88351503Y-52920038D01*
X88351503Y-52920038D02*
X88446741Y-52872419D01*
X88446741Y-52872419D02*
X88684836Y-52872419D01*
X88684836Y-52872419D02*
X88827693Y-52920038D01*
D11*
X126916666Y-92524819D02*
X126916666Y-93239104D01*
X126916666Y-93239104D02*
X126869047Y-93381961D01*
X126869047Y-93381961D02*
X126773809Y-93477200D01*
X126773809Y-93477200D02*
X126630952Y-93524819D01*
X126630952Y-93524819D02*
X126535714Y-93524819D01*
X127535714Y-92953390D02*
X127440476Y-92905771D01*
X127440476Y-92905771D02*
X127392857Y-92858152D01*
X127392857Y-92858152D02*
X127345238Y-92762914D01*
X127345238Y-92762914D02*
X127345238Y-92715295D01*
X127345238Y-92715295D02*
X127392857Y-92620057D01*
X127392857Y-92620057D02*
X127440476Y-92572438D01*
X127440476Y-92572438D02*
X127535714Y-92524819D01*
X127535714Y-92524819D02*
X127726190Y-92524819D01*
X127726190Y-92524819D02*
X127821428Y-92572438D01*
X127821428Y-92572438D02*
X127869047Y-92620057D01*
X127869047Y-92620057D02*
X127916666Y-92715295D01*
X127916666Y-92715295D02*
X127916666Y-92762914D01*
X127916666Y-92762914D02*
X127869047Y-92858152D01*
X127869047Y-92858152D02*
X127821428Y-92905771D01*
X127821428Y-92905771D02*
X127726190Y-92953390D01*
X127726190Y-92953390D02*
X127535714Y-92953390D01*
X127535714Y-92953390D02*
X127440476Y-93001009D01*
X127440476Y-93001009D02*
X127392857Y-93048628D01*
X127392857Y-93048628D02*
X127345238Y-93143866D01*
X127345238Y-93143866D02*
X127345238Y-93334342D01*
X127345238Y-93334342D02*
X127392857Y-93429580D01*
X127392857Y-93429580D02*
X127440476Y-93477200D01*
X127440476Y-93477200D02*
X127535714Y-93524819D01*
X127535714Y-93524819D02*
X127726190Y-93524819D01*
X127726190Y-93524819D02*
X127821428Y-93477200D01*
X127821428Y-93477200D02*
X127869047Y-93429580D01*
X127869047Y-93429580D02*
X127916666Y-93334342D01*
X127916666Y-93334342D02*
X127916666Y-93143866D01*
X127916666Y-93143866D02*
X127869047Y-93048628D01*
X127869047Y-93048628D02*
X127821428Y-93001009D01*
X127821428Y-93001009D02*
X127726190Y-92953390D01*
X115531009Y-81833333D02*
X115531009Y-82166666D01*
X116054819Y-82166666D02*
X115054819Y-82166666D01*
X115054819Y-82166666D02*
X115054819Y-81690476D01*
X115150057Y-81357142D02*
X115102438Y-81309523D01*
X115102438Y-81309523D02*
X115054819Y-81214285D01*
X115054819Y-81214285D02*
X115054819Y-80976190D01*
X115054819Y-80976190D02*
X115102438Y-80880952D01*
X115102438Y-80880952D02*
X115150057Y-80833333D01*
X115150057Y-80833333D02*
X115245295Y-80785714D01*
X115245295Y-80785714D02*
X115340533Y-80785714D01*
X115340533Y-80785714D02*
X115483390Y-80833333D01*
X115483390Y-80833333D02*
X116054819Y-81404761D01*
X116054819Y-81404761D02*
X116054819Y-80785714D01*
X166833333Y-129584819D02*
X166500000Y-129108628D01*
X166261905Y-129584819D02*
X166261905Y-128584819D01*
X166261905Y-128584819D02*
X166642857Y-128584819D01*
X166642857Y-128584819D02*
X166738095Y-128632438D01*
X166738095Y-128632438D02*
X166785714Y-128680057D01*
X166785714Y-128680057D02*
X166833333Y-128775295D01*
X166833333Y-128775295D02*
X166833333Y-128918152D01*
X166833333Y-128918152D02*
X166785714Y-129013390D01*
X166785714Y-129013390D02*
X166738095Y-129061009D01*
X166738095Y-129061009D02*
X166642857Y-129108628D01*
X166642857Y-129108628D02*
X166261905Y-129108628D01*
X167738095Y-128584819D02*
X167261905Y-128584819D01*
X167261905Y-128584819D02*
X167214286Y-129061009D01*
X167214286Y-129061009D02*
X167261905Y-129013390D01*
X167261905Y-129013390D02*
X167357143Y-128965771D01*
X167357143Y-128965771D02*
X167595238Y-128965771D01*
X167595238Y-128965771D02*
X167690476Y-129013390D01*
X167690476Y-129013390D02*
X167738095Y-129061009D01*
X167738095Y-129061009D02*
X167785714Y-129156247D01*
X167785714Y-129156247D02*
X167785714Y-129394342D01*
X167785714Y-129394342D02*
X167738095Y-129489580D01*
X167738095Y-129489580D02*
X167690476Y-129537200D01*
X167690476Y-129537200D02*
X167595238Y-129584819D01*
X167595238Y-129584819D02*
X167357143Y-129584819D01*
X167357143Y-129584819D02*
X167261905Y-129537200D01*
X167261905Y-129537200D02*
X167214286Y-129489580D01*
X93866666Y-110534819D02*
X93866666Y-111249104D01*
X93866666Y-111249104D02*
X93819047Y-111391961D01*
X93819047Y-111391961D02*
X93723809Y-111487200D01*
X93723809Y-111487200D02*
X93580952Y-111534819D01*
X93580952Y-111534819D02*
X93485714Y-111534819D01*
X94247619Y-110534819D02*
X94914285Y-110534819D01*
X94914285Y-110534819D02*
X94485714Y-111534819D01*
X93866666Y-93574819D02*
X93866666Y-94289104D01*
X93866666Y-94289104D02*
X93819047Y-94431961D01*
X93819047Y-94431961D02*
X93723809Y-94527200D01*
X93723809Y-94527200D02*
X93580952Y-94574819D01*
X93580952Y-94574819D02*
X93485714Y-94574819D01*
X94771428Y-93574819D02*
X94580952Y-93574819D01*
X94580952Y-93574819D02*
X94485714Y-93622438D01*
X94485714Y-93622438D02*
X94438095Y-93670057D01*
X94438095Y-93670057D02*
X94342857Y-93812914D01*
X94342857Y-93812914D02*
X94295238Y-94003390D01*
X94295238Y-94003390D02*
X94295238Y-94384342D01*
X94295238Y-94384342D02*
X94342857Y-94479580D01*
X94342857Y-94479580D02*
X94390476Y-94527200D01*
X94390476Y-94527200D02*
X94485714Y-94574819D01*
X94485714Y-94574819D02*
X94676190Y-94574819D01*
X94676190Y-94574819D02*
X94771428Y-94527200D01*
X94771428Y-94527200D02*
X94819047Y-94479580D01*
X94819047Y-94479580D02*
X94866666Y-94384342D01*
X94866666Y-94384342D02*
X94866666Y-94146247D01*
X94866666Y-94146247D02*
X94819047Y-94051009D01*
X94819047Y-94051009D02*
X94771428Y-94003390D01*
X94771428Y-94003390D02*
X94676190Y-93955771D01*
X94676190Y-93955771D02*
X94485714Y-93955771D01*
X94485714Y-93955771D02*
X94390476Y-94003390D01*
X94390476Y-94003390D02*
X94342857Y-94051009D01*
X94342857Y-94051009D02*
X94295238Y-94146247D01*
X126413333Y-89324819D02*
X126080000Y-88848628D01*
X125841905Y-89324819D02*
X125841905Y-88324819D01*
X125841905Y-88324819D02*
X126222857Y-88324819D01*
X126222857Y-88324819D02*
X126318095Y-88372438D01*
X126318095Y-88372438D02*
X126365714Y-88420057D01*
X126365714Y-88420057D02*
X126413333Y-88515295D01*
X126413333Y-88515295D02*
X126413333Y-88658152D01*
X126413333Y-88658152D02*
X126365714Y-88753390D01*
X126365714Y-88753390D02*
X126318095Y-88801009D01*
X126318095Y-88801009D02*
X126222857Y-88848628D01*
X126222857Y-88848628D02*
X125841905Y-88848628D01*
X127365714Y-89324819D02*
X126794286Y-89324819D01*
X127080000Y-89324819D02*
X127080000Y-88324819D01*
X127080000Y-88324819D02*
X126984762Y-88467676D01*
X126984762Y-88467676D02*
X126889524Y-88562914D01*
X126889524Y-88562914D02*
X126794286Y-88610533D01*
X166833333Y-124584819D02*
X166500000Y-124108628D01*
X166261905Y-124584819D02*
X166261905Y-123584819D01*
X166261905Y-123584819D02*
X166642857Y-123584819D01*
X166642857Y-123584819D02*
X166738095Y-123632438D01*
X166738095Y-123632438D02*
X166785714Y-123680057D01*
X166785714Y-123680057D02*
X166833333Y-123775295D01*
X166833333Y-123775295D02*
X166833333Y-123918152D01*
X166833333Y-123918152D02*
X166785714Y-124013390D01*
X166785714Y-124013390D02*
X166738095Y-124061009D01*
X166738095Y-124061009D02*
X166642857Y-124108628D01*
X166642857Y-124108628D02*
X166261905Y-124108628D01*
X167690476Y-123918152D02*
X167690476Y-124584819D01*
X167452381Y-123537200D02*
X167214286Y-124251485D01*
X167214286Y-124251485D02*
X167833333Y-124251485D01*
X181690476Y-121994819D02*
X181690476Y-122709104D01*
X181690476Y-122709104D02*
X181642857Y-122851961D01*
X181642857Y-122851961D02*
X181547619Y-122947200D01*
X181547619Y-122947200D02*
X181404762Y-122994819D01*
X181404762Y-122994819D02*
X181309524Y-122994819D01*
X182690476Y-122994819D02*
X182119048Y-122994819D01*
X182404762Y-122994819D02*
X182404762Y-121994819D01*
X182404762Y-121994819D02*
X182309524Y-122137676D01*
X182309524Y-122137676D02*
X182214286Y-122232914D01*
X182214286Y-122232914D02*
X182119048Y-122280533D01*
X183309524Y-121994819D02*
X183404762Y-121994819D01*
X183404762Y-121994819D02*
X183500000Y-122042438D01*
X183500000Y-122042438D02*
X183547619Y-122090057D01*
X183547619Y-122090057D02*
X183595238Y-122185295D01*
X183595238Y-122185295D02*
X183642857Y-122375771D01*
X183642857Y-122375771D02*
X183642857Y-122613866D01*
X183642857Y-122613866D02*
X183595238Y-122804342D01*
X183595238Y-122804342D02*
X183547619Y-122899580D01*
X183547619Y-122899580D02*
X183500000Y-122947200D01*
X183500000Y-122947200D02*
X183404762Y-122994819D01*
X183404762Y-122994819D02*
X183309524Y-122994819D01*
X183309524Y-122994819D02*
X183214286Y-122947200D01*
X183214286Y-122947200D02*
X183166667Y-122899580D01*
X183166667Y-122899580D02*
X183119048Y-122804342D01*
X183119048Y-122804342D02*
X183071429Y-122613866D01*
X183071429Y-122613866D02*
X183071429Y-122375771D01*
X183071429Y-122375771D02*
X183119048Y-122185295D01*
X183119048Y-122185295D02*
X183166667Y-122090057D01*
X183166667Y-122090057D02*
X183214286Y-122042438D01*
X183214286Y-122042438D02*
X183309524Y-121994819D01*
X113954819Y-133083333D02*
X114669104Y-133083333D01*
X114669104Y-133083333D02*
X114811961Y-133130952D01*
X114811961Y-133130952D02*
X114907200Y-133226190D01*
X114907200Y-133226190D02*
X114954819Y-133369047D01*
X114954819Y-133369047D02*
X114954819Y-133464285D01*
X114954819Y-132083333D02*
X114954819Y-132654761D01*
X114954819Y-132369047D02*
X113954819Y-132369047D01*
X113954819Y-132369047D02*
X114097676Y-132464285D01*
X114097676Y-132464285D02*
X114192914Y-132559523D01*
X114192914Y-132559523D02*
X114240533Y-132654761D01*
X207666666Y-64799819D02*
X207666666Y-65514104D01*
X207666666Y-65514104D02*
X207619047Y-65656961D01*
X207619047Y-65656961D02*
X207523809Y-65752200D01*
X207523809Y-65752200D02*
X207380952Y-65799819D01*
X207380952Y-65799819D02*
X207285714Y-65799819D01*
X208190476Y-65799819D02*
X208380952Y-65799819D01*
X208380952Y-65799819D02*
X208476190Y-65752200D01*
X208476190Y-65752200D02*
X208523809Y-65704580D01*
X208523809Y-65704580D02*
X208619047Y-65561723D01*
X208619047Y-65561723D02*
X208666666Y-65371247D01*
X208666666Y-65371247D02*
X208666666Y-64990295D01*
X208666666Y-64990295D02*
X208619047Y-64895057D01*
X208619047Y-64895057D02*
X208571428Y-64847438D01*
X208571428Y-64847438D02*
X208476190Y-64799819D01*
X208476190Y-64799819D02*
X208285714Y-64799819D01*
X208285714Y-64799819D02*
X208190476Y-64847438D01*
X208190476Y-64847438D02*
X208142857Y-64895057D01*
X208142857Y-64895057D02*
X208095238Y-64990295D01*
X208095238Y-64990295D02*
X208095238Y-65228390D01*
X208095238Y-65228390D02*
X208142857Y-65323628D01*
X208142857Y-65323628D02*
X208190476Y-65371247D01*
X208190476Y-65371247D02*
X208285714Y-65418866D01*
X208285714Y-65418866D02*
X208476190Y-65418866D01*
X208476190Y-65418866D02*
X208571428Y-65371247D01*
X208571428Y-65371247D02*
X208619047Y-65323628D01*
X208619047Y-65323628D02*
X208666666Y-65228390D01*
X161584819Y-115746666D02*
X161108628Y-116079999D01*
X161584819Y-116318094D02*
X160584819Y-116318094D01*
X160584819Y-116318094D02*
X160584819Y-115937142D01*
X160584819Y-115937142D02*
X160632438Y-115841904D01*
X160632438Y-115841904D02*
X160680057Y-115794285D01*
X160680057Y-115794285D02*
X160775295Y-115746666D01*
X160775295Y-115746666D02*
X160918152Y-115746666D01*
X160918152Y-115746666D02*
X161013390Y-115794285D01*
X161013390Y-115794285D02*
X161061009Y-115841904D01*
X161061009Y-115841904D02*
X161108628Y-115937142D01*
X161108628Y-115937142D02*
X161108628Y-116318094D01*
X160680057Y-115365713D02*
X160632438Y-115318094D01*
X160632438Y-115318094D02*
X160584819Y-115222856D01*
X160584819Y-115222856D02*
X160584819Y-114984761D01*
X160584819Y-114984761D02*
X160632438Y-114889523D01*
X160632438Y-114889523D02*
X160680057Y-114841904D01*
X160680057Y-114841904D02*
X160775295Y-114794285D01*
X160775295Y-114794285D02*
X160870533Y-114794285D01*
X160870533Y-114794285D02*
X161013390Y-114841904D01*
X161013390Y-114841904D02*
X161584819Y-115413332D01*
X161584819Y-115413332D02*
X161584819Y-114794285D01*
X145666666Y-64799819D02*
X145666666Y-65514104D01*
X145666666Y-65514104D02*
X145619047Y-65656961D01*
X145619047Y-65656961D02*
X145523809Y-65752200D01*
X145523809Y-65752200D02*
X145380952Y-65799819D01*
X145380952Y-65799819D02*
X145285714Y-65799819D01*
X146095238Y-64895057D02*
X146142857Y-64847438D01*
X146142857Y-64847438D02*
X146238095Y-64799819D01*
X146238095Y-64799819D02*
X146476190Y-64799819D01*
X146476190Y-64799819D02*
X146571428Y-64847438D01*
X146571428Y-64847438D02*
X146619047Y-64895057D01*
X146619047Y-64895057D02*
X146666666Y-64990295D01*
X146666666Y-64990295D02*
X146666666Y-65085533D01*
X146666666Y-65085533D02*
X146619047Y-65228390D01*
X146619047Y-65228390D02*
X146047619Y-65799819D01*
X146047619Y-65799819D02*
X146666666Y-65799819D01*
X181666666Y-118954819D02*
X181666666Y-119669104D01*
X181666666Y-119669104D02*
X181619047Y-119811961D01*
X181619047Y-119811961D02*
X181523809Y-119907200D01*
X181523809Y-119907200D02*
X181380952Y-119954819D01*
X181380952Y-119954819D02*
X181285714Y-119954819D01*
X182571428Y-119288152D02*
X182571428Y-119954819D01*
X182333333Y-118907200D02*
X182095238Y-119621485D01*
X182095238Y-119621485D02*
X182714285Y-119621485D01*
X181666666Y-93034819D02*
X181666666Y-93749104D01*
X181666666Y-93749104D02*
X181619047Y-93891961D01*
X181619047Y-93891961D02*
X181523809Y-93987200D01*
X181523809Y-93987200D02*
X181380952Y-94034819D01*
X181380952Y-94034819D02*
X181285714Y-94034819D01*
X182619047Y-93034819D02*
X182142857Y-93034819D01*
X182142857Y-93034819D02*
X182095238Y-93511009D01*
X182095238Y-93511009D02*
X182142857Y-93463390D01*
X182142857Y-93463390D02*
X182238095Y-93415771D01*
X182238095Y-93415771D02*
X182476190Y-93415771D01*
X182476190Y-93415771D02*
X182571428Y-93463390D01*
X182571428Y-93463390D02*
X182619047Y-93511009D01*
X182619047Y-93511009D02*
X182666666Y-93606247D01*
X182666666Y-93606247D02*
X182666666Y-93844342D01*
X182666666Y-93844342D02*
X182619047Y-93939580D01*
X182619047Y-93939580D02*
X182571428Y-93987200D01*
X182571428Y-93987200D02*
X182476190Y-94034819D01*
X182476190Y-94034819D02*
X182238095Y-94034819D01*
X182238095Y-94034819D02*
X182142857Y-93987200D01*
X182142857Y-93987200D02*
X182095238Y-93939580D01*
X152166666Y-92524819D02*
X152166666Y-93239104D01*
X152166666Y-93239104D02*
X152119047Y-93381961D01*
X152119047Y-93381961D02*
X152023809Y-93477200D01*
X152023809Y-93477200D02*
X151880952Y-93524819D01*
X151880952Y-93524819D02*
X151785714Y-93524819D01*
X152547619Y-92524819D02*
X153166666Y-92524819D01*
X153166666Y-92524819D02*
X152833333Y-92905771D01*
X152833333Y-92905771D02*
X152976190Y-92905771D01*
X152976190Y-92905771D02*
X153071428Y-92953390D01*
X153071428Y-92953390D02*
X153119047Y-93001009D01*
X153119047Y-93001009D02*
X153166666Y-93096247D01*
X153166666Y-93096247D02*
X153166666Y-93334342D01*
X153166666Y-93334342D02*
X153119047Y-93429580D01*
X153119047Y-93429580D02*
X153071428Y-93477200D01*
X153071428Y-93477200D02*
X152976190Y-93524819D01*
X152976190Y-93524819D02*
X152690476Y-93524819D01*
X152690476Y-93524819D02*
X152595238Y-93477200D01*
X152595238Y-93477200D02*
X152547619Y-93429580D01*
X121841905Y-78924819D02*
X121841905Y-77924819D01*
X121841905Y-77924819D02*
X122080000Y-77924819D01*
X122080000Y-77924819D02*
X122222857Y-77972438D01*
X122222857Y-77972438D02*
X122318095Y-78067676D01*
X122318095Y-78067676D02*
X122365714Y-78162914D01*
X122365714Y-78162914D02*
X122413333Y-78353390D01*
X122413333Y-78353390D02*
X122413333Y-78496247D01*
X122413333Y-78496247D02*
X122365714Y-78686723D01*
X122365714Y-78686723D02*
X122318095Y-78781961D01*
X122318095Y-78781961D02*
X122222857Y-78877200D01*
X122222857Y-78877200D02*
X122080000Y-78924819D01*
X122080000Y-78924819D02*
X121841905Y-78924819D01*
X123365714Y-78924819D02*
X122794286Y-78924819D01*
X123080000Y-78924819D02*
X123080000Y-77924819D01*
X123080000Y-77924819D02*
X122984762Y-78067676D01*
X122984762Y-78067676D02*
X122889524Y-78162914D01*
X122889524Y-78162914D02*
X122794286Y-78210533D01*
X127398095Y-78554819D02*
X127398095Y-77554819D01*
X127969523Y-78554819D02*
X127540952Y-77983390D01*
X127969523Y-77554819D02*
X127398095Y-78126247D01*
X166824819Y-99666666D02*
X166348628Y-99999999D01*
X166824819Y-100238094D02*
X165824819Y-100238094D01*
X165824819Y-100238094D02*
X165824819Y-99857142D01*
X165824819Y-99857142D02*
X165872438Y-99761904D01*
X165872438Y-99761904D02*
X165920057Y-99714285D01*
X165920057Y-99714285D02*
X166015295Y-99666666D01*
X166015295Y-99666666D02*
X166158152Y-99666666D01*
X166158152Y-99666666D02*
X166253390Y-99714285D01*
X166253390Y-99714285D02*
X166301009Y-99761904D01*
X166301009Y-99761904D02*
X166348628Y-99857142D01*
X166348628Y-99857142D02*
X166348628Y-100238094D01*
X165824819Y-99333332D02*
X165824819Y-98714285D01*
X165824819Y-98714285D02*
X166205771Y-99047618D01*
X166205771Y-99047618D02*
X166205771Y-98904761D01*
X166205771Y-98904761D02*
X166253390Y-98809523D01*
X166253390Y-98809523D02*
X166301009Y-98761904D01*
X166301009Y-98761904D02*
X166396247Y-98714285D01*
X166396247Y-98714285D02*
X166634342Y-98714285D01*
X166634342Y-98714285D02*
X166729580Y-98761904D01*
X166729580Y-98761904D02*
X166777200Y-98809523D01*
X166777200Y-98809523D02*
X166824819Y-98904761D01*
X166824819Y-98904761D02*
X166824819Y-99190475D01*
X166824819Y-99190475D02*
X166777200Y-99285713D01*
X166777200Y-99285713D02*
X166729580Y-99333332D01*
%TO.C,J8*%
D12*
X125920000Y-97110000D02*
X125920000Y-132730000D01*
X125920000Y-97110000D02*
X128580000Y-97110000D01*
X125920000Y-132730000D02*
X128580000Y-132730000D01*
X127250000Y-94510000D02*
X128580000Y-94510000D01*
X128580000Y-94510000D02*
X128580000Y-95840000D01*
X128580000Y-97110000D02*
X128580000Y-132730000D01*
%TO.C,F2*%
X111500000Y-77850000D02*
X112998000Y-77850000D01*
X111500000Y-83212000D02*
X111500000Y-77850000D01*
X111500000Y-85150000D02*
X111500000Y-84888000D01*
X111798000Y-85150000D02*
X111500000Y-85150000D01*
X114402000Y-77850000D02*
X114700000Y-77850000D01*
X114700000Y-77850000D02*
X114700000Y-78112000D01*
X114700000Y-79788000D02*
X114700000Y-85150000D01*
X114700000Y-85150000D02*
X113202000Y-85150000D01*
%TO.C,R5*%
X163730000Y-130130000D02*
X170270000Y-130130000D01*
X170270000Y-132870000D01*
X163730000Y-132870000D01*
X163730000Y-130130000D01*
X171040000Y-131500000D02*
X170270000Y-131500000D01*
X162960000Y-131500000D02*
X163730000Y-131500000D01*
%TO.C,J7*%
X92820000Y-112080000D02*
X94200000Y-112080000D01*
X92820000Y-113460000D02*
X92820000Y-112080000D01*
X92820000Y-114730000D02*
X92820000Y-119920000D01*
X92820000Y-114730000D02*
X95580000Y-114730000D01*
X92820000Y-119920000D02*
X95580000Y-119920000D01*
X95580000Y-114730000D02*
X95580000Y-119920000D01*
%TO.C,J6*%
X92820000Y-95120000D02*
X94200000Y-95120000D01*
X92820000Y-96500000D02*
X92820000Y-95120000D01*
X92820000Y-97770000D02*
X92820000Y-102960000D01*
X92820000Y-97770000D02*
X95580000Y-97770000D01*
X92820000Y-102960000D02*
X95580000Y-102960000D01*
X95580000Y-97770000D02*
X95580000Y-102960000D01*
%TO.C,R1*%
X122540000Y-86500000D02*
X123310000Y-86500000D01*
X130620000Y-86500000D02*
X129850000Y-86500000D01*
X123310000Y-85130000D02*
X129850000Y-85130000D01*
X129850000Y-87870000D01*
X123310000Y-87870000D01*
X123310000Y-85130000D01*
%TO.C,R4*%
X162960000Y-126500000D02*
X163730000Y-126500000D01*
X171040000Y-126500000D02*
X170270000Y-126500000D01*
X163730000Y-125130000D02*
X170270000Y-125130000D01*
X170270000Y-127870000D01*
X163730000Y-127870000D01*
X163730000Y-125130000D01*
%TO.C,J10*%
X181120000Y-123540000D02*
X182500000Y-123540000D01*
X181120000Y-124920000D02*
X181120000Y-123540000D01*
X181120000Y-126190000D02*
X181120000Y-133920000D01*
X181120000Y-126190000D02*
X183880000Y-126190000D01*
X181120000Y-133920000D02*
X183880000Y-133920000D01*
X183880000Y-126190000D02*
X183880000Y-133920000D01*
%TO.C,J1*%
X113350000Y-138100000D02*
X104150000Y-138100000D01*
X113350000Y-129100000D02*
X113350000Y-138100000D01*
X113350000Y-123500000D02*
X113350000Y-125500000D01*
X110550000Y-123500000D02*
X113350000Y-123500000D01*
X104150000Y-138100000D02*
X104150000Y-123500000D01*
X104150000Y-123500000D02*
X106950000Y-123500000D01*
X103910000Y-125000000D02*
X103910000Y-123260000D01*
X103910000Y-123260000D02*
X105650000Y-123260000D01*
%TO.C,J9*%
X206620000Y-66345000D02*
X208000000Y-66345000D01*
X206620000Y-67725000D02*
X206620000Y-66345000D01*
X206620000Y-68995000D02*
X206620000Y-71645000D01*
X206620000Y-68995000D02*
X209380000Y-68995000D01*
X206620000Y-71645000D02*
X209380000Y-71645000D01*
X209380000Y-68995000D02*
X209380000Y-71645000D01*
%TO.C,R2*%
X163500000Y-111540000D02*
X163500000Y-112310000D01*
X163500000Y-119620000D02*
X163500000Y-118850000D01*
X162130000Y-112310000D02*
X164870000Y-112310000D01*
X164870000Y-118850000D01*
X162130000Y-118850000D01*
X162130000Y-112310000D01*
%TO.C,J2*%
X144620000Y-66345000D02*
X146000000Y-66345000D01*
X144620000Y-67725000D02*
X144620000Y-66345000D01*
X144620000Y-68995000D02*
X144620000Y-71645000D01*
X144620000Y-68995000D02*
X147380000Y-68995000D01*
X144620000Y-71645000D02*
X147380000Y-71645000D01*
X147380000Y-68995000D02*
X147380000Y-71645000D01*
%TO.C,J4*%
X180620000Y-115850000D02*
X180620000Y-110660000D01*
X183380000Y-110660000D02*
X180620000Y-110660000D01*
X183380000Y-115850000D02*
X180620000Y-115850000D01*
X183380000Y-115850000D02*
X183380000Y-110660000D01*
X183380000Y-117120000D02*
X183380000Y-118500000D01*
X183380000Y-118500000D02*
X182000000Y-118500000D01*
%TO.C,J5*%
X180620000Y-94580000D02*
X182000000Y-94580000D01*
X180620000Y-95960000D02*
X180620000Y-94580000D01*
X180620000Y-97230000D02*
X180620000Y-102420000D01*
X180620000Y-97230000D02*
X183380000Y-97230000D01*
X180620000Y-102420000D02*
X183380000Y-102420000D01*
X183380000Y-97230000D02*
X183380000Y-102420000D01*
%TO.C,J3*%
X151170000Y-97110000D02*
X151170000Y-132730000D01*
X151170000Y-97110000D02*
X153830000Y-97110000D01*
X151170000Y-132730000D02*
X153830000Y-132730000D01*
X152500000Y-94510000D02*
X153830000Y-94510000D01*
X153830000Y-94510000D02*
X153830000Y-95840000D01*
X153830000Y-97110000D02*
X153830000Y-132730000D01*
%TO.C,D1*%
X118840000Y-76000000D02*
X119860000Y-76000000D01*
X124280000Y-77470000D02*
X124280000Y-74530000D01*
X124400000Y-77470000D02*
X124400000Y-74530000D01*
X124520000Y-77470000D02*
X124520000Y-74530000D01*
X126320000Y-76000000D02*
X125300000Y-76000000D01*
X119860000Y-74530000D02*
X125300000Y-74530000D01*
X125300000Y-77470000D01*
X119860000Y-77470000D01*
X119860000Y-74530000D01*
%TO.C,R3*%
X164000000Y-95460000D02*
X164000000Y-96230000D01*
X164000000Y-103540000D02*
X164000000Y-102770000D01*
X162630000Y-96230000D02*
X165370000Y-96230000D01*
X165370000Y-102770000D01*
X162630000Y-102770000D01*
X162630000Y-96230000D01*
%TD*%
M02*
